<svg xmlns="http://www.w3.org/2000/svg" width="32.546" height="29.859" viewBox="0 0 32.546 29.859">
  <g id="alarm" transform="translate(0.15 0.15)">
    <path id="Tracé_9" data-name="Tracé 9" d="M28.047,18.085V13.252a7.82,7.82,0,0,0-4.584-7.1A10.8,10.8,0,0,0,21.585,5.5V5.187a2.687,2.687,0,1,0-5.374,0v.355a10.641,10.641,0,0,0-1.691.612,8.131,8.131,0,0,0-4.758,7.095v4.837a11.924,11.924,0,0,1-3.6,8.755.537.537,0,0,0,.288.911l5.1.881c.95.164,1.825.3,2.658.409a5.313,5.313,0,0,0,9.584,0c.829-.11,1.7-.244,2.645-.407l5.1-.881a.537.537,0,0,0,.288-.911A12.017,12.017,0,0,1,28.047,18.085ZM17.286,5.187a1.612,1.612,0,0,1,3.225,0v.1a10.686,10.686,0,0,0-3.225.025ZM19,30.984A4.307,4.307,0,0,1,15.548,29.2a33.285,33.285,0,0,0,3.443.186,33.1,33.1,0,0,0,3.456-.188A4.309,4.309,0,0,1,19,30.984Zm7.254-3.411c-1.031.178-1.977.322-2.87.436h0c-.394.05-.777.094-1.151.131h-.009c-.343.034-.679.062-1.011.086l-.186.012c-.288.019-.572.034-.855.045l-.173.007c-.669.023-1.328.023-2,0l-.18-.008c-.278-.011-.558-.025-.841-.044l-.2-.013c-.322-.023-.648-.05-.98-.083l-.037,0c-.372-.037-.751-.081-1.141-.13h0c-.9-.113-1.846-.259-2.881-.437l-4.117-.71a12.935,12.935,0,0,0,3.225-8.776V13.252A7.036,7.036,0,0,1,14.97,7.13a9.608,9.608,0,0,1,1.879-.636l.017,0a9.771,9.771,0,0,1,4.074-.037c.007,0,.014,0,.021,0a9.72,9.72,0,0,1,2.056.671,6.822,6.822,0,0,1,3.956,6.122v4.837a13.077,13.077,0,0,0,3.393,8.777Z" transform="translate(-2.775 -2.5)" fill="#fff" stroke="#fff" stroke-width="0.3"/>
    <path id="Tracé_10" data-name="Tracé 10" d="M27.9,13.223a8.212,8.212,0,0,0-6.7,0A5.431,5.431,0,0,0,18,17.875a.538.538,0,0,0,.534.541h0a.537.537,0,0,0,.537-.534A4.335,4.335,0,0,1,21.646,14.2a7.114,7.114,0,0,1,5.8,0,.537.537,0,1,0,.448-.977Z" transform="translate(-8.326 -7.13)" fill="#fff" stroke="#fff" stroke-width="0.3"/>
    <path id="Tracé_11" data-name="Tracé 11" d="M2.581,22.657a.537.537,0,0,0-.76,0,6.23,6.23,0,0,0,0,8.8.537.537,0,1,0,.76-.76,5.156,5.156,0,0,1,0-7.283A.538.538,0,0,0,2.581,22.657Z" transform="translate(0 -11.751)" fill="#fff" stroke="#fff" stroke-width="0.3"/>
    <path id="Tracé_12" data-name="Tracé 12" d="M6.82,31.32A.537.537,0,0,0,7.2,30.4a3.528,3.528,0,0,1,0-4.985.537.537,0,0,0-.76-.76,4.605,4.605,0,0,0,0,6.505A.534.534,0,0,0,6.82,31.32Z" transform="translate(-2.357 -12.676)" fill="#fff" stroke="#fff" stroke-width="0.3"/>
    <path id="Tracé_13" data-name="Tracé 13" d="M55.822,22.657a.537.537,0,1,0-.76.76,5.156,5.156,0,0,1,0,7.283.537.537,0,1,0,.76.76,6.23,6.23,0,0,0,0-8.8Z" transform="translate(-25.397 -11.751)" fill="#fff" stroke="#fff" stroke-width="0.3"/>
    <path id="Tracé_14" data-name="Tracé 14" d="M50.852,24.657a.537.537,0,0,0,0,.76,3.528,3.528,0,0,1,0,4.985.537.537,0,1,0,.76.76,4.605,4.605,0,0,0,0-6.505A.537.537,0,0,0,50.852,24.657Z" transform="translate(-23.45 -12.676)" fill="#fff" stroke="#fff" stroke-width="0.3"/>
  </g>
</svg>
