<svg xmlns="http://www.w3.org/2000/svg" width="25.997" height="17.075" viewBox="0 0 25.997 17.075">
  <g id="console" transform="translate(0 -55.109)">
    <g id="Groupe_20" data-name="Groupe 20" transform="translate(0 55.109)">
      <g id="Groupe_19" data-name="Groupe 19" transform="translate(0 0)">
        <path id="Tracé_34" data-name="Tracé 34" d="M25.984,66.918a24.267,24.267,0,0,0-.712-4.7,18.02,18.02,0,0,0-1.457-3.95c-2.267-3.983-4.728-3.368-7.674-2.59a21.092,21.092,0,0,1-2.979.583h-.324a21.092,21.092,0,0,1-2.979-.583C6.911,54.937,4.45,54.29,2.184,58.3a16.507,16.507,0,0,0-1.457,3.95,24.267,24.267,0,0,0-.712,4.7,8.823,8.823,0,0,0,.453,3.691A2.454,2.454,0,0,0,2.022,72.1a3.166,3.166,0,0,0,2.072-.227,15.22,15.22,0,0,0,4.145-2.947A7.149,7.149,0,0,1,13,67.468a7.149,7.149,0,0,1,4.76,1.457A15.22,15.22,0,0,0,21.9,71.872a3.387,3.387,0,0,0,2.072.227,2.42,2.42,0,0,0,1.554-1.49A8.658,8.658,0,0,0,25.984,66.918Zm-1.554,3.238a1.284,1.284,0,0,1-.777.81,2.236,2.236,0,0,1-1.328-.162,13.206,13.206,0,0,1-3.756-2.688A8.086,8.086,0,0,0,13,66.27a8.539,8.539,0,0,0-5.6,1.781,13.455,13.455,0,0,1-3.756,2.688,2.009,2.009,0,0,1-1.328.162,1.284,1.284,0,0,1-.777-.81,7.657,7.657,0,0,1-.324-3.109,22.335,22.335,0,0,1,.68-4.469,15.451,15.451,0,0,1,1.36-3.659c1.781-3.206,3.853-2.688,6.314-2.04a19,19,0,0,0,3.173.615h.486a18.76,18.76,0,0,0,3.206-.615c2.461-.615,4.533-1.166,6.314,2.04a14.931,14.931,0,0,1,1.36,3.659,24.508,24.508,0,0,1,.68,4.469A7.493,7.493,0,0,1,24.429,70.156Z" transform="translate(0 -55.109)" fill="#fff"/>
      </g>
    </g>
    <g id="Groupe_22" data-name="Groupe 22" transform="translate(3.35 58.337)">
      <g id="Groupe_21" data-name="Groupe 21" transform="translate(0 0)">
        <path id="Tracé_35" data-name="Tracé 35" d="M48.043,97.248a1.967,1.967,0,0,0-1.166-.55,1.843,1.843,0,0,0-.518-1.133l-.032-.032A1.834,1.834,0,0,0,45,94.981a1.912,1.912,0,0,0-1.328.55,1.882,1.882,0,0,0-.55,1.166,1.929,1.929,0,0,0-1.166.518l-.032.032a1.834,1.834,0,0,0-.55,1.328,1.912,1.912,0,0,0,.55,1.328,1.805,1.805,0,0,0,1.2.55,1.727,1.727,0,0,0,.55,1.166,1.834,1.834,0,0,0,1.328.55,1.912,1.912,0,0,0,1.328-.55,1.967,1.967,0,0,0,.55-1.166,1.727,1.727,0,0,0,1.166-.55,1.834,1.834,0,0,0,.55-1.328A1.912,1.912,0,0,0,48.043,97.248Zm-.81,1.813a.659.659,0,0,1-.486.194h-.453a.615.615,0,0,0-.615.615v.421a.68.68,0,1,1-1.36,0v-.453a.615.615,0,0,0-.615-.615h-.453a.664.664,0,0,1-.486-1.133l.032-.032a.774.774,0,0,1,.453-.162H43.7a.615.615,0,0,0,.615-.615v-.453a.687.687,0,0,1,1.166-.486l.032.032a.774.774,0,0,1,.162.453v.453a.615.615,0,0,0,.615.615h.453a.687.687,0,0,1,.486,1.166Z" transform="translate(-41.373 -94.981)" fill="#fff"/>
      </g>
    </g>
    <g id="Groupe_24" data-name="Groupe 24" transform="translate(17.5 58.499)">
      <g id="Groupe_23" data-name="Groupe 23">
        <circle id="Ellipse_11" data-name="Ellipse 11" cx="1.133" cy="1.133" r="1.133" fill="#fff"/>
      </g>
    </g>
    <g id="Groupe_26" data-name="Groupe 26" transform="translate(17.5 63.097)">
      <g id="Groupe_25" data-name="Groupe 25" transform="translate(0 0)">
        <circle id="Ellipse_12" data-name="Ellipse 12" cx="1.133" cy="1.133" r="1.133" fill="#fff"/>
      </g>
    </g>
    <g id="Groupe_28" data-name="Groupe 28" transform="translate(15.201 60.798)">
      <g id="Groupe_27" data-name="Groupe 27">
        <circle id="Ellipse_13" data-name="Ellipse 13" cx="1.133" cy="1.133" r="1.133" fill="#fff"/>
      </g>
    </g>
    <g id="Groupe_30" data-name="Groupe 30" transform="translate(19.799 60.798)">
      <g id="Groupe_29" data-name="Groupe 29">
        <circle id="Ellipse_14" data-name="Ellipse 14" cx="1.133" cy="1.133" r="1.133" fill="#fff"/>
      </g>
    </g>
  </g>
</svg>
