<svg id="crazy" xmlns="http://www.w3.org/2000/svg" xmlns:xlink="http://www.w3.org/1999/xlink" width="36.526" height="36.526" viewBox="0 0 36.526 36.526">
  <defs>
    <linearGradient id="linear-gradient" x1="-0.031" y1="0.442" x2="1.024" y2="0.442" gradientUnits="objectBoundingBox">
      <stop offset="0" stop-color="#279ccb"/>
      <stop offset="1" stop-color="#1ac1b9"/>
    </linearGradient>
  </defs>
  <g id="Groupe_9" data-name="Groupe 9">
    <g id="Groupe_8" data-name="Groupe 8">
      <path id="Tracé_19" data-name="Tracé 19" d="M18.263,0A18.263,18.263,0,1,0,36.526,18.263,18.283,18.283,0,0,0,18.263,0Zm0,35A16.741,16.741,0,1,1,35,18.263,16.76,16.76,0,0,1,18.263,35Z" fill="url(#linear-gradient)"/>
      <path id="Tracé_20" data-name="Tracé 20" d="M127.216,320H107.431a.761.761,0,0,0-.74.936,11,11,0,0,0,21.265,0,.761.761,0,0,0-.74-.936Zm-9.892,7.61a9.463,9.463,0,0,1-4.122-.966,3.472,3.472,0,0,1,1.839-.556,3.744,3.744,0,0,1,1.9.529.754.754,0,0,0,.767,0,3.669,3.669,0,0,1,3.758.017A9.455,9.455,0,0,1,117.323,327.61Zm5.566-1.837a5.222,5.222,0,0,0-5.566-.675,5.176,5.176,0,0,0-5.548.694,9.2,9.2,0,0,1-3.324-4.27h17.741A9.216,9.216,0,0,1,122.889,325.773Z" transform="translate(-99.06 -297.171)" fill="url(#linear-gradient)"/>
      <path id="Tracé_21" data-name="Tracé 21" d="M111.233,115.8a4.566,4.566,0,1,0-4.566-4.566A4.571,4.571,0,0,0,111.233,115.8Zm0-7.61a3.044,3.044,0,1,1,0,6.088,3,3,0,0,1-.86-.139,1.485,1.485,0,0,0-2.045-2.046,3,3,0,0,1-.139-.859A3.048,3.048,0,0,1,111.233,108.189Z" transform="translate(-99.057 -99.057)" fill="url(#linear-gradient)"/>
      <path id="Tracé_22" data-name="Tracé 22" d="M281.9,106.667a4.566,4.566,0,1,0,4.566,4.566A4.571,4.571,0,0,0,281.9,106.667Zm0,7.61a3.044,3.044,0,0,1,0-6.088,3,3,0,0,1,.86.139,1.48,1.48,0,0,0,2.045,2.045,3,3,0,0,1,.139.86A3.048,3.048,0,0,1,281.9,114.277Z" transform="translate(-257.548 -99.057)" fill="url(#linear-gradient)"/>
    </g>
  </g>
</svg>
