<svg xmlns="http://www.w3.org/2000/svg" width="19.243" height="28.554" viewBox="0 0 19.243 28.554">
  <g id="file" transform="translate(-76.8)">
    <g id="Groupe_14" data-name="Groupe 14" transform="translate(89.836 0.621)">
      <g id="Groupe_13" data-name="Groupe 13" transform="translate(0)">
        <path id="Tracé_31" data-name="Tracé 31" d="M291.84,10.24v2.483a2.49,2.49,0,0,0,2.483,2.483h2.483Z" transform="translate(-291.84 -10.24)" fill="#fff"/>
      </g>
    </g>
    <g id="Groupe_16" data-name="Groupe 16" transform="translate(76.8)">
      <g id="Groupe_15" data-name="Groupe 15" transform="translate(0)">
        <path id="Tracé_32" data-name="Tracé 32" d="M92.319,6.828A3.735,3.735,0,0,1,88.594,3.1V0H79.9a3.113,3.113,0,0,0-3.1,3.1V24.83a3.113,3.113,0,0,0,3.1,3.1h3.135a3.08,3.08,0,0,0,3.073-3.073v-3.1a3.126,3.126,0,0,1,3.135-3.135h3.135a3.08,3.08,0,0,0,3.073-3.073V6.828ZM79.9,2.483h6.207a.621.621,0,1,1,0,1.241H79.9a.621.621,0,1,1,0-1.241ZM92.319,16.139H79.9a.621.621,0,1,1,0-1.241H92.319a.621.621,0,1,1,0,1.241Zm0-3.1H79.9a.621.621,0,1,1,0-1.241H92.319a.621.621,0,1,1,0,1.241Zm0-3.1H79.9a.621.621,0,1,1,0-1.241H92.319a.621.621,0,1,1,0,1.241Z" transform="translate(-76.8)" fill="#fff"/>
      </g>
    </g>
    <g id="Groupe_18" data-name="Groupe 18" transform="translate(88.594 21.105)">
      <g id="Groupe_17" data-name="Groupe 17">
        <path id="Tracé_33" data-name="Tracé 33" d="M278.188,351.264h-2.483v-2.483a.621.621,0,1,0-1.241,0v2.483h-2.483a.621.621,0,1,0,0,1.241h2.483v2.483a.621.621,0,0,0,1.241,0v-2.483h2.483a.621.621,0,0,0,0-1.241Z" transform="translate(-271.36 -348.16)" fill="#fff"/>
      </g>
    </g>
  </g>
</svg>
