<svg xmlns="http://www.w3.org/2000/svg" xmlns:xlink="http://www.w3.org/1999/xlink" width="29.848" height="29.848" viewBox="0 0 29.848 29.848">
  <defs>
    <linearGradient id="linear-gradient" y1="0.234" x2="1.685" y2="0.221" gradientUnits="objectBoundingBox">
      <stop offset="0" stop-color="#279bcb"/>
      <stop offset="1" stop-color="#1bc0ba"/>
    </linearGradient>
  </defs>
  <g id="link" transform="translate(-0.001)">
    <path id="Tracé_17" data-name="Tracé 17" d="M13.8,186.126l-4.516,4.516A4.344,4.344,0,1,1,3.139,184.5l8.1-8.1a4.45,4.45,0,0,1,6.145,0l1.321-1.317a6.356,6.356,0,0,0-8.785,0l-8.1,8.1a6.209,6.209,0,1,0,8.781,8.781l5.719-5.719c-.261.025-.517.076-.782.076a8.069,8.069,0,0,1-1.74-.192Z" transform="translate(0 -163.932)" fill="url(#linear-gradient)"/>
    <path id="Tracé_18" data-name="Tracé 18" d="M218.18,0a6.167,6.167,0,0,0-4.391,1.819L208.07,7.538c.261-.025.517-.076.782-.076a8.013,8.013,0,0,1,1.726.206l4.53-4.53a4.344,4.344,0,1,1,6.143,6.143l-8.1,8.1a4.451,4.451,0,0,1-6.149,0L205.681,18.7a6.209,6.209,0,0,0,8.788.006l8.1-8.1A6.209,6.209,0,0,0,218.18,0Z" transform="translate(-194.541)" fill="url(#linear-gradient)"/>
  </g>
</svg>
