<svg id="man" xmlns="http://www.w3.org/2000/svg" xmlns:xlink="http://www.w3.org/1999/xlink" width="103.852" height="103.852" viewBox="0 0 103.852 103.852">
  <defs>
    <clipPath id="clip-path">
      <circle id="Ellipse_16" data-name="Ellipse 16" cx="51.926" cy="51.926" r="51.926"/>
    </clipPath>
  </defs>
  <g id="Groupe_39" data-name="Groupe 39">
    <circle id="Ellipse_15" data-name="Ellipse 15" cx="51.926" cy="51.926" r="51.926" transform="translate(0 0)" fill="#f3e4b2"/>
    <g id="Groupe_31" data-name="Groupe 31" transform="translate(0 0)" clip-path="url(#clip-path)">
      <path id="Tracé_39" data-name="Tracé 39" d="M98.464,34.032V51.29c0,.249-.006.5-.012.748-.006.2-.011.4-.023.608q-.008.272-.034.545c-.006.13-.017.261-.028.391-.006.08-.012.153-.023.233-.011.142-.023.289-.045.431-.023.272-.057.539-.1.811-.006.068-.017.136-.028.2-.017.136-.04.273-.062.408v.017c-.034.2-.068.391-.1.59-.051.272-.1.545-.159.811-.006.012-.006.023-.011.035a.923.923,0,0,1-.023.119c-.006.012-.006.023-.012.034-.028.148-.062.289-.1.431a1.1,1.1,0,0,1-.045.188c-.017.1-.046.2-.068.306-.017.057-.028.119-.051.176s-.028.1-.04.148c-.119.465-.256.92-.4,1.373-.068.216-.136.426-.21.641-.006.023-.017.045-.023.068l-.2.579c-.023.057-.045.113-.068.176-.068.182-.136.363-.21.545-.085.221-.176.437-.267.653-.079.193-.164.385-.249.578-.011.035-.028.062-.04.1-.1.2-.187.408-.284.608s-.2.42-.306.63c-.2.414-.426.829-.647,1.231l-.306.545a33.4,33.4,0,0,1-2.9,4.222q-.213.281-.443.544c-.21.256-.426.505-.641.749-.193.216-.386.431-.585.641q-.817.877-1.669,1.663c-.114.113-.232.216-.352.323-.193.176-.386.346-.585.511-.153.136-.312.267-.471.4-.408.334-.817.658-1.231.959-.17.131-.346.256-.522.375-.284.2-.573.4-.863.585-.159.108-.323.21-.488.306-.579.357-1.164.687-1.743.97-.142.074-.284.142-.426.21s-.289.136-.443.2q-.281.128-.562.238a1.82,1.82,0,0,1-.221.085c-.221.091-.448.176-.67.249-.278.1-.562.188-.84.267-.193.057-.391.108-.585.153a.079.079,0,0,1-.04.012c-.193.046-.386.091-.579.125a1.489,1.489,0,0,1-.153.029c-.159.028-.318.057-.477.074a6.793,6.793,0,0,1-.681.073,1.568,1.568,0,0,1-.232.017c-.182.011-.363.017-.539.017h-.017c-.176,0-.352-.006-.528-.017a1.214,1.214,0,0,1-.2-.017c-.159-.006-.323-.023-.494-.045a.655.655,0,0,1-.108-.012c-.21-.028-.42-.062-.635-.1-.182-.029-.363-.068-.551-.114a16.354,16.354,0,0,1-2.979-1,21.8,21.8,0,0,1-2.6-1.373c-.437-.267-.874-.55-1.305-.851-.216-.153-.431-.307-.647-.466q-1.013-.741-2-1.612c-.182-.164-.363-.329-.545-.5s-.363-.335-.539-.5Q61.532,73,60.9,72.311q-.247-.264-.494-.545c-.454-.511-.9-1.038-1.316-1.589-.164-.2-.318-.4-.471-.607q-.86-1.141-1.629-2.378c-.136-.221-.273-.448-.4-.67-.159-.267-.312-.539-.465-.811a30.94,30.94,0,0,1-1.543-3.178c-.068-.159-.136-.318-.193-.476-.091-.2-.17-.415-.244-.619q-.171-.451-.323-.9c-.1-.3-.2-.608-.3-.914s-.176-.59-.255-.891c-.091-.318-.176-.641-.25-.97-.006-.034-.017-.068-.023-.1q-.161-.681-.289-1.379c-.114-.613-.2-1.237-.272-1.867-.029-.2-.046-.4-.062-.6s-.04-.415-.051-.624c-.028-.38-.045-.767-.057-1.153-.006-.249-.012-.5-.012-.748V34.032a23.1,23.1,0,0,1,23.086-23.1h.023a23.36,23.36,0,0,1,5.118.567A23.112,23.112,0,0,1,98.458,33.827C98.464,33.9,98.464,33.963,98.464,34.032Z" transform="translate(-23.411 -4.897)" fill="#ecc19c"/>
    </g>
    <g id="Groupe_32" data-name="Groupe 32" transform="translate(0 0)" clip-path="url(#clip-path)">
      <path id="Tracé_40" data-name="Tracé 40" d="M99.781,165.685v.006H39.575v-.006a29.949,29.949,0,0,1,1.606-9.721q.281-.825.613-1.634v-.006c.216-.539.454-1.067.7-1.589a29.754,29.754,0,0,1,3.666-5.845c.363-.449.732-.886,1.112-1.305.187-.216.386-.425.585-.635s.4-.408.6-.613a29.9,29.9,0,0,1,3.252-2.8c.573-.426,1.152-.823,1.754-1.208s1.214-.744,1.839-1.084a.036.036,0,0,1,.023-.011c.244-.131.482-.273.721-.42a17.968,17.968,0,0,0,2.037-1.419,18.978,18.978,0,0,0,7.184-14.9l4.386.023,4.512.023A18.962,18.962,0,0,0,81.3,137.4a15.4,15.4,0,0,0,1.26.931c.046.034.085.062.131.091.2.136.408.272.624.4.232.142.471.284.709.415a.282.282,0,0,1,.1.051c.5.278.993.567,1.475.868.233.142.465.289.692.454.471.3.931.63,1.379.971a.005.005,0,0,0,.006.006h.006c.574.426,1.129.88,1.674,1.345s1.067.953,1.572,1.459A29.945,29.945,0,0,1,99.781,165.685Z" transform="translate(-17.731 -54.881)" fill="#ecc19c"/>
    </g>
    <g id="Groupe_33" data-name="Groupe 33" transform="translate(0 0)" clip-path="url(#clip-path)">
      <path id="Tracé_41" data-name="Tracé 41" d="M99.778,177.762H39.572a29.946,29.946,0,0,1,1.606-9.721q.281-.825.613-1.634V166.4c.216-.539.454-1.067.7-1.589a29.761,29.761,0,0,1,3.666-5.845c.363-.448.732-.885,1.112-1.3.187-.216.386-.426.585-.635s.4-.408.6-.613a29.891,29.891,0,0,1,3.252-2.8c.574-.426,1.152-.823,1.754-1.209.312-.2.624-.391.942-.578.3-.176.6-.347.9-.511a.019.019,0,0,1,.023-.006V151.3c.244-.136.482-.272.721-.415a17.531,17.531,0,0,0,2.026-1.43l.012.012a16.177,16.177,0,0,0,11.571,4.887H69.7a16.211,16.211,0,0,0,11.6-4.881l.006-.006a15.264,15.264,0,0,0,1.254.937c.045.034.085.062.13.091.2.136.415.267.624.4.232.142.471.278.709.408a.57.57,0,0,1,.1.051c.267.148.539.3.8.459.227.136.454.273.676.415s.465.289.692.454c.471.3.931.63,1.379.971h.012c.573.431,1.135.88,1.674,1.35s1.067.954,1.572,1.459A29.95,29.95,0,0,1,99.778,177.762Z" transform="translate(-17.729 -66.96)" fill="#eb6d4a"/>
    </g>
    <g id="Groupe_34" data-name="Groupe 34" transform="translate(0 0)" clip-path="url(#clip-path)">
      <path id="Tracé_42" data-name="Tracé 42" d="M98.464,84.05c0,.249-.006.5-.012.748-.006.2-.011.4-.023.608q-.008.272-.034.545c-.006.13-.017.261-.028.391-.006.08-.012.153-.023.233-.011.142-.023.289-.045.431-.029.272-.057.544-.1.811-.006.068-.017.136-.028.2-.017.136-.04.273-.062.408-.028.2-.068.408-.1.608-.045.238-.091.471-.142.7a1.083,1.083,0,0,1-.029.142c-.006.039-.017.079-.023.119-.006.012-.006.023-.012.034a.3.3,0,0,1-.011.074c-.028.119-.051.238-.085.357a1.1,1.1,0,0,1-.045.188,3.378,3.378,0,0,1-.085.329.711.711,0,0,1-.034.153c-.012.051-.028.1-.04.148-.119.465-.256.92-.4,1.373-.068.216-.136.426-.21.641-.006.023-.017.045-.023.068l-.2.579c-.023.057-.045.113-.068.176-.068.182-.136.363-.21.545-.085.221-.176.437-.267.653-.079.193-.164.385-.249.578-.011.035-.028.062-.04.1-.1.2-.187.408-.284.608s-.2.42-.306.63c-.2.414-.426.829-.647,1.231l-.306.545a33.4,33.4,0,0,1-2.9,4.222q-.213.281-.443.544c-.21.256-.426.505-.641.749-.193.216-.386.431-.585.641q-.817.877-1.669,1.663c-.114.113-.232.216-.352.323-.193.176-.386.346-.585.511-.153.136-.312.267-.471.4-.408.334-.817.658-1.231.959-.17.131-.346.256-.522.375-.284.2-.573.4-.863.585-.159.108-.323.21-.488.306-.579.357-1.164.687-1.743.97-.142.074-.284.142-.426.21s-.289.136-.443.2q-.281.128-.562.238a1.82,1.82,0,0,1-.221.085c-.221.091-.448.176-.67.249-.278.1-.562.188-.84.267-.193.057-.391.108-.585.153a.079.079,0,0,1-.04.012c-.193.046-.386.091-.579.125a1.489,1.489,0,0,1-.153.029c-.159.028-.318.057-.477.074a6.793,6.793,0,0,1-.681.073,1.568,1.568,0,0,1-.232.017c-.182.011-.363.017-.539.017h-.017c-.176,0-.352-.006-.528-.017a1.214,1.214,0,0,1-.2-.017c-.159-.006-.323-.023-.494-.045a.655.655,0,0,1-.108-.012c-.21-.028-.42-.062-.635-.1-.182-.029-.363-.068-.551-.114a16.354,16.354,0,0,1-2.979-1,21.8,21.8,0,0,1-2.6-1.373c-.437-.261-.868-.545-1.305-.851-.216-.153-.431-.307-.647-.466q-1.013-.741-2-1.612c-.182-.164-.363-.329-.545-.5s-.363-.335-.539-.5q-.664-.638-1.294-1.327-.247-.264-.494-.545c-.454-.511-.9-1.038-1.316-1.589-.164-.2-.318-.4-.471-.607q-.86-1.141-1.629-2.378c-.136-.221-.273-.448-.4-.67-.159-.267-.312-.539-.465-.811a30.941,30.941,0,0,1-1.543-3.178c-.068-.159-.136-.318-.193-.476-.091-.2-.17-.415-.244-.619q-.171-.451-.323-.9c-.1-.3-.2-.608-.3-.914s-.176-.59-.255-.891c-.091-.318-.176-.641-.25-.97-.006-.034-.017-.068-.023-.1q-.161-.681-.289-1.379c-.114-.613-.2-1.237-.272-1.867-.029-.2-.046-.4-.062-.6s-.04-.415-.051-.624c-.028-.38-.045-.767-.057-1.153-.006-.249-.012-.5-.012-.748L55.942,91.3l6.339,2.764,7.5.674h.006l5.556.505h.034l5.2.471s0-.006.006,0l11.594,1.045Z" transform="translate(-23.411 -37.657)" fill="#543e36"/>
    </g>
    <g id="Groupe_35" data-name="Groupe 35" transform="translate(0 0)" clip-path="url(#clip-path)">
      <path id="Tracé_43" data-name="Tracé 43" d="M75.383,82.189l-.006,5.59v.006l-.006,1.958v1.538l-.006,5.107v.006l-.006-.006h-.006l-.017-.012L53.018,85.015c-.006-.034-.017-.068-.023-.1q-.161-.681-.289-1.379c-.114-.613-.2-1.237-.272-1.867-.029-.2-.046-.4-.062-.6s-.04-.415-.051-.624c-.028-.38-.045-.767-.057-1.153-.006-.249-.012-.5-.012-.748V71.764c0,.1.006.193.006.289a22.587,22.587,0,0,0,.811,5.289,22.909,22.909,0,0,0,1.447,3.9v.006C56,84.34,58,86.439,59.828,86.779c.114.017.232.029.346.04a19.954,19.954,0,0,0,2.219.125c2.895,0,5.465-2.327,7.082-3.269l.034-.017c.085-.051.17-.1.244-.153a.411.411,0,0,1,.068-.039,11.469,11.469,0,0,1,5.516-1.277Z" transform="translate(-23.41 -32.152)" fill="#543e36"/>
      <path id="Tracé_44" data-name="Tracé 44" d="M117.205,71.759l-.006,6.782a27.814,27.814,0,0,1-.454,4.988c-.119.647-.256,1.288-.415,1.924l-5.238,7.565L94.1,96.382H94.1l-.006.006v-.006l-.017-14.2h.046a11.512,11.512,0,0,1,5.521,1.277.369.369,0,0,1,.062.04c.079.051.164.1.25.153a.125.125,0,0,0,.028.017c1.623.942,4.188,3.27,7.082,3.27a19.954,19.954,0,0,0,2.219-.125c.119-.012.232-.023.352-.04,1.828-.341,3.825-2.44,5.306-5.533v-.006a22.956,22.956,0,0,0,1.447-3.9,22.338,22.338,0,0,0,.811-5.363C117.205,71.9,117.205,71.832,117.205,71.759Z" transform="translate(-42.148 -32.15)" fill="#543e36"/>
    </g>
    <g id="Groupe_36" data-name="Groupe 36" clip-path="url(#clip-path)">
      <ellipse id="Ellipse_21" data-name="Ellipse 21" cx="5.66" cy="1.75" rx="5.66" ry="1.75" transform="translate(46.284 55.627)" fill="#ecc19c"/>
    </g>
    <g id="Groupe_37" data-name="Groupe 37" transform="translate(0 0)" clip-path="url(#clip-path)">
      <path id="Tracé_45" data-name="Tracé 45" d="M75.36,10.929h-.022a23.105,23.105,0,0,0-23.086,23.1V44.219s.959-6.078,3.541-9.029c2.8-3.206,2.094-8.081,8.382-8.081,4.058,0,4.284,1.5,11.157,1.5h.033c6.873,0,7.1-1.5,11.157-1.5,6.288,0,5.578,4.874,8.382,8.081,2.582,2.951,3.541,9.029,3.541,9.029V34.032A23.106,23.106,0,0,0,75.36,10.929Z" transform="translate(-23.41 -4.897)" fill="#543e36"/>
    </g>
    <g id="Groupe_38" data-name="Groupe 38" transform="translate(0 0)" clip-path="url(#clip-path)">
      <path id="Tracé_46" data-name="Tracé 46" d="M96.967,151.809l-.624.636a20.507,20.507,0,0,1-29.3-.011l-.6-.613c.3-.176.6-.347.9-.511a.019.019,0,0,1,.023-.006V151.3c.244-.136.482-.272.721-.415a17.53,17.53,0,0,0,2.026-1.43l.012.012A16.177,16.177,0,0,0,81.7,154.352h.046a16.211,16.211,0,0,0,11.6-4.881l.006-.006a15.262,15.262,0,0,0,1.254.937c.045.034.085.062.13.091.2.136.415.267.624.4.232.142.471.278.709.408a.57.57,0,0,1,.1.051C96.433,151.5,96.706,151.651,96.967,151.809Z" transform="translate(-29.77 -66.96)" fill="#c34628"/>
    </g>
  </g>
</svg>
