<svg xmlns="http://www.w3.org/2000/svg" width="20.683" height="16.404" viewBox="0 0 20.683 16.404">
  <g id="picture" transform="translate(0 -6)">
    <path id="Tracé_36" data-name="Tracé 36" d="M20.326,6H.357A.357.357,0,0,0,0,6.357v15.69a.357.357,0,0,0,.357.357h19.97a.357.357,0,0,0,.357-.357V6.357A.357.357,0,0,0,20.326,6ZM19.97,21.69H.713V6.713H19.97Z" fill="#fff"/>
    <path id="Tracé_37" data-name="Tracé 37" d="M12.417,20.972a1.986,1.986,0,1,0-1.986-1.986A1.988,1.988,0,0,0,12.417,20.972Zm0-3.259a1.273,1.273,0,1,1-1.273,1.273A1.274,1.274,0,0,1,12.417,17.713Z" transform="translate(-6.711 -7.077)" fill="#fff"/>
    <path id="Tracé_38" data-name="Tracé 38" d="M6.356,31.2a.356.356,0,0,0,.235-.089l5.817-5.122,3.674,3.673a.357.357,0,1,0,.5-.5l-1.714-1.714,3.274-3.585,4.016,3.681a.357.357,0,1,0,.482-.526l-4.279-3.923A.368.368,0,0,0,18.108,23a.357.357,0,0,0-.247.116l-3.493,3.825-1.691-1.691a.357.357,0,0,0-.488-.016L6.121,30.578a.357.357,0,0,0,.236.624Z" transform="translate(-3.86 -10.938)" fill="#fff"/>
  </g>
</svg>
