<svg id="settings" xmlns="http://www.w3.org/2000/svg" width="27.767" height="27.767" viewBox="0 0 27.767 27.767">
  <g id="Groupe_6" data-name="Groupe 6" transform="translate(0 0)">
    <path id="Tracé_5" data-name="Tracé 5" d="M26.346,10.97,24.4,10.639a11,11,0,0,0-.783-1.891l1.149-1.607a1.71,1.71,0,0,0-.186-2.21L22.848,3.2a1.7,1.7,0,0,0-1.212-.5,1.685,1.685,0,0,0-.992.319L19.032,4.166a10.891,10.891,0,0,0-1.961-.806l-.325-1.926A1.714,1.714,0,0,0,15.052,0H12.61a1.714,1.714,0,0,0-1.694,1.433L10.58,3.406A10.734,10.734,0,0,0,8.7,4.2L7.1,3.052a1.713,1.713,0,0,0-2.21.186L3.156,4.966a1.717,1.717,0,0,0-.186,2.21l1.16,1.63a10.749,10.749,0,0,0-.771,1.9l-1.926.325A1.714,1.714,0,0,0,0,12.722v2.442a1.714,1.714,0,0,0,1.433,1.694l1.972.336A10.734,10.734,0,0,0,4.2,19.079L3.057,20.668a1.71,1.71,0,0,0,.186,2.21l1.729,1.729a1.7,1.7,0,0,0,1.212.5,1.685,1.685,0,0,0,.992-.319l1.63-1.16a10.973,10.973,0,0,0,1.833.754l.325,1.949a1.714,1.714,0,0,0,1.694,1.433H15.1A1.714,1.714,0,0,0,16.8,26.336l.331-1.949A11,11,0,0,0,19.02,23.6l1.607,1.149a1.7,1.7,0,0,0,1,.319h0a1.7,1.7,0,0,0,1.212-.5l1.729-1.729a1.717,1.717,0,0,0,.186-2.21L23.6,19.015a10.926,10.926,0,0,0,.783-1.891l1.949-.325a1.714,1.714,0,0,0,1.433-1.694V12.664A1.693,1.693,0,0,0,26.346,10.97Zm-.133,4.136a.15.15,0,0,1-.128.151l-2.436.406a.779.779,0,0,0-.626.574,9.286,9.286,0,0,1-1.009,2.43.784.784,0,0,0,.035.853l1.433,2.019a.158.158,0,0,1-.017.2l-1.729,1.729a.147.147,0,0,1-.11.046.142.142,0,0,1-.087-.029l-2.013-1.433a.784.784,0,0,0-.853-.035,9.286,9.286,0,0,1-2.43,1.009.77.77,0,0,0-.574.626l-.412,2.436a.15.15,0,0,1-.151.128H12.663a.15.15,0,0,1-.151-.128l-.406-2.436a.779.779,0,0,0-.574-.626,9.642,9.642,0,0,1-2.378-.974.8.8,0,0,0-.394-.1.764.764,0,0,0-.452.145l-2.03,1.444a.173.173,0,0,1-.087.029.155.155,0,0,1-.11-.046L4.35,21.788a.157.157,0,0,1-.017-.2l1.427-2a.794.794,0,0,0,.035-.858,9.2,9.2,0,0,1-1.021-2.425.794.794,0,0,0-.626-.574l-2.454-.418a.15.15,0,0,1-.128-.151V12.722a.15.15,0,0,1,.128-.151l2.419-.406a.784.784,0,0,0,.632-.58,9.276,9.276,0,0,1,.992-2.436A.774.774,0,0,0,5.7,8.3L4.252,6.271a.158.158,0,0,1,.017-.2L6,4.346a.147.147,0,0,1,.11-.046.142.142,0,0,1,.087.029l2,1.427a.794.794,0,0,0,.858.035,9.2,9.2,0,0,1,2.425-1.021.794.794,0,0,0,.574-.626l.418-2.454a.15.15,0,0,1,.151-.128h2.442a.15.15,0,0,1,.151.128l.406,2.419a.784.784,0,0,0,.58.632,9.415,9.415,0,0,1,2.488,1.021.784.784,0,0,0,.853-.035l2-1.439a.173.173,0,0,1,.087-.029.155.155,0,0,1,.11.046l1.729,1.729a.157.157,0,0,1,.017.2L22.054,8.244a.784.784,0,0,0-.035.853,9.286,9.286,0,0,1,1.009,2.43.77.77,0,0,0,.626.574l2.436.412a.15.15,0,0,1,.128.151v2.442Z" transform="translate(0 -0.001)" fill="#fff"/>
    <path id="Tracé_6" data-name="Tracé 6" d="M142.092,136a5.992,5.992,0,1,0,5.992,5.992A6,6,0,0,0,142.092,136Zm0,10.418a4.426,4.426,0,1,1,4.426-4.426A4.429,4.429,0,0,1,142.092,146.419Z" transform="translate(-128.205 -128.112)" fill="#fff"/>
  </g>
</svg>
