<svg id="user" xmlns="http://www.w3.org/2000/svg" width="28.041" height="28.041" viewBox="0 0 28.041 28.041">
  <path id="Tracé_7" data-name="Tracé 7" d="M14.021,0A14.021,14.021,0,1,0,28.041,14.021,14.037,14.037,0,0,0,14.021,0Zm0,1.753A12.247,12.247,0,0,1,23.72,21.5a22.638,22.638,0,0,0-19.4,0,12.247,12.247,0,0,1,9.7-19.751ZM5.55,22.874a20.869,20.869,0,0,1,16.94,0,12.212,12.212,0,0,1-16.94,0Z" fill="#fff"/>
  <path id="Tracé_8" data-name="Tracé 8" d="M177.486,148.3a5.258,5.258,0,1,0-5.258-5.258A5.263,5.263,0,0,0,177.486,148.3Zm0-8.763a3.505,3.505,0,1,1-3.505,3.505A3.509,3.509,0,0,1,177.486,139.535Z" transform="translate(-163.465 -130.772)" fill="#fff"/>
</svg>
